# xmcd
#
# Track frame offsets:
#	150
#	13096
#	46433
#	78758
#	110533
#
# Disc length: 1916 seconds
#
# Revision: 1
# Processed by: cddbd v1.5.2PL0 Copyright (c) Steve Scherf et al.
# Submitted via: audiograbber 1.83.01
#
DISCID=33077a05
DTITLE=John Dahlback, Diaz and Young Rebels Ft Terri B - Data Records Promo - Can
DTITLE='t Slow Down
DYEAR=2009
DGENRE=Dance
TTITLE0=Can't Slow Down (UK Radio Edit)
TTITLE1=Can't Slow Down (John Dahlback Remix)
TTITLE2=Can't Slow Down (Francesco Diaz and Young Rebels Remix)
TTITLE3=Can't Slow Down (Jean Elan Remix)
TTITLE4=Can't Slow Down (John Dahlback Dub)
EXTD=
EXTT0=
EXTT1=
EXTT2=
EXTT3=
EXTT4=
PLAYORDER=
